<svg xmlns="http://www.w3.org/2000/svg" xmlns:xlink="http://www.w3.org/1999/xlink" width="2000" zoomAndPan="magnify" viewBox="0 0 1500 1499.999933" height="2000" preserveAspectRatio="xMidYMid meet" version="1.0"><defs><clipPath id="0af7f1b20d"><path d="M 37.425781 37.425781 L 1462.425781 37.425781 L 1462.425781 1462.425781 L 37.425781 1462.425781 Z M 37.425781 37.425781 " clip-rule="nonzero"/></clipPath></defs><path fill="#a3e635" d="M 631.484375 910.511719 L 569.976562 910.511719 C 541.472656 910.511719 517.472656 886.507812 517.472656 858.003906 L 517.472656 748.492188 C 517.472656 719.992188 541.472656 695.988281 569.976562 695.988281 L 631.484375 695.988281 C 659.984375 695.988281 683.988281 719.992188 683.988281 748.492188 L 683.988281 858.003906 C 683.988281 886.507812 661.484375 910.511719 631.484375 910.511719 Z M 631.484375 910.511719 " fill-opacity="1" fill-rule="nonzero"/><path fill="#a3e635" d="M 894.007812 910.511719 L 832.503906 910.511719 C 804 910.511719 779.996094 886.507812 779.996094 858.003906 L 779.996094 748.492188 C 779.996094 719.992188 804 695.988281 832.503906 695.988281 L 894.007812 695.988281 C 922.511719 695.988281 946.511719 719.992188 946.511719 748.492188 L 946.511719 858.003906 C 946.511719 886.507812 922.511719 910.511719 894.007812 910.511719 Z M 894.007812 910.511719 " fill-opacity="1" fill-rule="nonzero"/><g clip-path="url(#0af7f1b20d)"><path fill="#a3e635" d="M 749.996094 37.425781 C 356.957031 37.425781 37.425781 356.957031 37.425781 749.996094 C 37.425781 1143.03125 356.957031 1462.566406 749.996094 1462.566406 L 1350.054688 1462.566406 C 1413.058594 1462.566406 1462.566406 1411.558594 1462.566406 1350.054688 L 1462.566406 749.996094 C 1462.566406 356.957031 1143.03125 37.425781 749.996094 37.425781 Z M 1249.542969 850.503906 C 1249.542969 897.007812 1212.039062 933.011719 1167.035156 933.011719 L 1129.53125 933.011719 C 1126.53125 933.011719 1122.03125 933.011719 1119.03125 931.511719 C 1059.023438 1059.023438 916.511719 1147.535156 749.996094 1147.535156 C 583.476562 1147.535156 440.964844 1059.023438 382.457031 933.011719 L 344.953125 933.011719 C 298.449219 933.011719 262.445312 895.507812 262.445312 850.503906 L 262.445312 755.996094 C 262.445312 709.492188 299.949219 673.488281 344.953125 673.488281 L 380.957031 673.488281 C 431.964844 565.476562 545.972656 484.46875 683.988281 464.964844 L 683.988281 374.957031 C 655.484375 358.457031 635.984375 328.453125 635.984375 292.449219 C 635.984375 239.945312 677.988281 197.941406 730.492188 197.941406 C 782.996094 197.941406 825 239.945312 825 292.449219 C 825 326.953125 805.5 358.457031 776.996094 374.957031 L 776.996094 460.464844 C 931.511719 470.964844 1060.523438 554.976562 1116.03125 673.488281 C 1119.03125 673.488281 1123.53125 671.988281 1126.53125 671.988281 L 1164.035156 671.988281 C 1210.539062 671.988281 1246.542969 709.492188 1246.542969 754.496094 L 1246.542969 850.503906 Z M 1249.542969 850.503906 " fill-opacity="1" fill-rule="nonzero"/></g></svg>
